<svg xmlns="http://www.w3.org/2000/svg" width="48" height="38.985" viewBox="0 0 48 38.985">
  <path id="Icon_awesome-twitter" data-name="Icon awesome-twitter" d="M43.066,14.223c.03.426.03.853.03,1.279,0,13.005-9.9,27.99-27.99,27.99A27.8,27.8,0,0,1,0,39.076a20.351,20.351,0,0,0,2.376.122A19.7,19.7,0,0,0,14.589,35a9.855,9.855,0,0,1-9.2-6.822,12.406,12.406,0,0,0,1.858.152,10.4,10.4,0,0,0,2.589-.335,9.839,9.839,0,0,1-7.888-9.655v-.122A9.907,9.907,0,0,0,6.4,19.462,9.852,9.852,0,0,1,3.35,6.3,27.963,27.963,0,0,0,23.634,16.6a11.105,11.105,0,0,1-.244-2.254A9.847,9.847,0,0,1,40.416,7.614,19.368,19.368,0,0,0,46.66,5.239a9.811,9.811,0,0,1-4.325,5.421A19.721,19.721,0,0,0,48,9.137a21.147,21.147,0,0,1-4.934,5.086Z" transform="translate(0 -4.508)" fill="#1da1f2"/>
</svg>
